# 3ds Max Wavefront OBJ Exporter v0.97b - (c)2007 guruware
# File Created: 27.01.2011 11:58:45

mtllib box.mtl

#
# object Box01
#

v  -2.7544 -32.7542 -15.9745
v  32.8046 -25.0464 2.5721
v  -18.7144 8.6261 -2.5721
v  16.8445 16.3340 15.9745
v  -13.6715 -45.4535 10.2342
v  21.8875 -37.7456 28.7809
v  -29.6316 -4.0731 23.6366
v  5.9274 3.6348 42.1833
# 8 vertices

vn 0.3510 0.4083 -0.8427
vn 0.3510 0.4083 -0.8427
vn 0.3510 0.4083 -0.8427
vn 0.3510 0.4083 -0.8427
vn 0.3510 0.4083 -0.8427
vn 0.3510 0.4083 -0.8427
vn -0.3510 -0.4083 0.8427
vn -0.3510 -0.4083 0.8427
vn -0.3510 -0.4083 0.8427
vn -0.3510 -0.4083 0.8427
vn -0.3510 -0.4083 0.8427
vn -0.3510 -0.4083 0.8427
vn 0.3445 -0.8931 -0.2893
vn 0.3445 -0.8931 -0.2893
vn 0.3445 -0.8931 -0.2893
vn 0.3445 -0.8931 -0.2893
vn 0.3445 -0.8931 -0.2893
vn 0.3445 -0.8931 -0.2893
vn 0.8707 0.1887 0.4541
vn 0.8707 0.1887 0.4541
vn 0.8707 0.1887 0.4541
vn 0.8707 0.1887 0.4541
vn 0.8707 0.1887 0.4541
vn 0.8707 0.1887 0.4541
vn -0.3445 0.8931 0.2893
vn -0.3445 0.8931 0.2893
vn -0.3445 0.8931 0.2893
vn -0.3445 0.8931 0.2893
vn -0.3445 0.8931 0.2893
vn -0.3445 0.8931 0.2893
vn -0.8707 -0.1887 -0.4541
vn -0.8707 -0.1887 -0.4541
vn -0.8707 -0.1887 -0.4541
vn -0.8707 -0.1887 -0.4541
vn -0.8707 -0.1887 -0.4541
vn -0.8707 -0.1887 -0.4541
# 36 vertex normals

vt 0.9995 0.0005 0.0005
vt 0.0005 0.0005 0.9995
vt 0.0005 0.0005 0.0005
vt 0.0005 0.0005 0.9995
vt 0.9995 0.9995 0.0005
vt 0.0005 0.9995 0.9995
vt 0.0005 0.9995 0.0005
vt 0.0005 0.9995 0.9995
vt 0.9995 0.0005 0.0005
vt 0.9995 0.9995 0.0005
vt 0.0005 0.9995 0.0005
vt 0.0005 0.9995 0.0005
vt 0.0005 0.0005 0.0005
vt 0.9995 0.0005 0.0005
vt 0.0005 0.0005 0.9995
vt 0.9995 0.0005 0.9995
vt 0.9995 0.9995 0.9995
vt 0.9995 0.9995 0.9995
vt 0.0005 0.9995 0.9995
vt 0.0005 0.0005 0.9995
vt 0.0005 0.0005 0.0005
vt 0.9995 0.0005 0.0005
vt 0.9995 0.9995 0.0005
vt 0.9995 0.9995 0.0005
vt 0.0005 0.9995 0.0005
vt 0.0005 0.0005 0.0005
vt 0.0005 0.0005 0.9995
vt 0.9995 0.0005 0.9995
vt 0.9995 0.9995 0.9995
vt 0.9995 0.9995 0.9995
vt 0.0005 0.0005 0.9995
vt 0.9995 0.0005 0.9995
vt 0.9995 0.9995 0.9995
vt 0.9995 0.9995 0.9995
vt 0.0005 0.0005 0.0005
vt 0.9995 0.9995 0.0005
# 36 texture coords

g Box01
usemtl 01___Default
s 2
f 1/9/1 3/10/2 4/11/3 
f 4/12/4 2/13/5 1/14/6 
s 4
f 5/15/7 6/16/8 8/17/9 
f 8/18/10 7/19/11 5/20/12 
s 8
f 1/21/13 2/22/14 6/23/15 
f 6/24/16 5/25/17 1/26/18 
s 16
f 2/27/19 4/28/20 8/29/21 
f 8/30/22 6/6/23 2/2/24 
s 32
f 4/31/25 3/32/26 7/33/27 
f 7/34/28 8/8/29 4/4/30 
s 64
f 3/35/31 1/1/32 5/36/33 
f 5/5/34 7/7/35 3/3/36 
# 12 faces

